<svg xmlns="http://www.w3.org/2000/svg"  viewBox="0 0 100 100" width="50px" height="50px"><path fill="#f1bc19" d="M77 12A1 1 0 1 0 77 14A1 1 0 1 0 77 12Z"/><path fill="#e4e4f9" d="M50 13A37 37 0 1 0 50 87A37 37 0 1 0 50 13Z"/><path fill="#f1bc19" d="M83 11A4 4 0 1 0 83 19A4 4 0 1 0 83 11Z"/><path fill="#8889b9" d="M87 22A2 2 0 1 0 87 26A2 2 0 1 0 87 22Z"/><path fill="#fbcd59" d="M81 74A2 2 0 1 0 81 78 2 2 0 1 0 81 74zM15 59A4 4 0 1 0 15 67 4 4 0 1 0 15 59z"/><path fill="#8889b9" d="M25 85A2 2 0 1 0 25 89A2 2 0 1 0 25 85Z"/><path fill="#fff" d="M18.5 49A2.5 2.5 0 1 0 18.5 54 2.5 2.5 0 1 0 18.5 49zM79.5 32A1.5 1.5 0 1 0 79.5 35 1.5 1.5 0 1 0 79.5 32z"/><g><path fill="#f37e98" d="M35,72.3c-4.025,0-7.3-3.274-7.3-7.3V35c0-4.025,3.274-7.3,7.3-7.3h30c4.025,0,7.3,3.274,7.3,7.3 v30c0,4.025-3.274,7.3-7.3,7.3H35z"/><path fill="#472b29" d="M65,28.4c3.639,0,6.6,2.961,6.6,6.6v30c0,3.639-2.961,6.6-6.6,6.6H35c-3.639,0-6.6-2.961-6.6-6.6 V35c0-3.639,2.961-6.6,6.6-6.6H65 M65,27H35c-4.4,0-8,3.6-8,8v30c0,4.4,3.6,8,8,8h30c4.4,0,8-3.6,8-8V35C73,30.6,69.4,27,65,27 L65,27z"/></g><g><path fill="#fff" d="M63.542,69H36.458C33.456,69,31,66.544,31,63.542V36.458C31,33.456,33.456,31,36.458,31h27.083 C66.544,31,69,33.456,69,36.458v27.083C69,66.544,66.544,69,63.542,69z"/></g><g><path fill="#472b29" d="M68.5,47.375c-0.276,0-0.5-0.224-0.5-0.5V43c0-0.276,0.224-0.5,0.5-0.5S69,42.724,69,43v3.875 C69,47.151,68.776,47.375,68.5,47.375z"/></g><g><path fill="#472b29" d="M68.5,40.5c-0.276,0-0.5-0.224-0.5-0.5v-2c0-0.276,0.224-0.5,0.5-0.5S69,37.724,69,38v2 C69,40.276,68.776,40.5,68.5,40.5z"/></g><g><path fill="#472b29" d="M64,69H36c-2.757,0-5-2.243-5-5V36c0-2.757,2.243-5,5-5h25.375c0.276,0,0.5,0.224,0.5,0.5 s-0.224,0.5-0.5,0.5H36c-2.206,0-4,1.794-4,4v28c0,2.206,1.794,4,4,4h28c2.206,0,4-1.794,4-4V49.625c0-0.276,0.224-0.5,0.5-0.5 s0.5,0.224,0.5,0.5V64C69,66.757,66.757,69,64,69z"/></g><g><path fill="#f15b6c" d="M50.607,40.417c-5.558,0-8.515,3.578-8.515,7.477c0,1.809,1.006,4.065,2.618,4.781 c0.244,0.11,0.377,0.063,0.432-0.165c0.047-0.173,0.259-1.006,0.362-1.4c0.032-0.125,0.015-0.235-0.087-0.354 c-0.534-0.621-0.959-1.754-0.959-2.815c0-2.72,2.154-5.362,5.818-5.362c3.169,0,5.386,2.068,5.386,5.024 c0,3.341-1.761,5.653-4.05,5.653c-1.266,0-2.209-0.998-1.911-2.233c0.362-1.47,1.07-3.05,1.07-4.112 c0-0.951-0.534-1.737-1.627-1.737c-1.29,0-2.335,1.282-2.335,3.004c0,1.093,0.385,1.832,0.385,1.832s-1.273,5.173-1.51,6.141 c-0.401,1.635,0.055,4.285,0.095,4.513c0.023,0.125,0.165,0.165,0.244,0.063c0.125-0.165,1.667-2.374,2.099-3.97 c0.157-0.582,0.802-2.94,0.802-2.94c0.424,0.771,1.651,1.415,2.957,1.415c3.884,0,6.691-3.428,6.691-7.681 C58.556,43.467,55.081,40.417,50.607,40.417"/><path fill="#472b29" d="M45.917,61.286c-0.049,0-0.098-0.006-0.147-0.018c-0.244-0.058-0.433-0.259-0.479-0.512 c-0.088-0.5-0.5-3.052-0.089-4.725c0.211-0.863,1.249-5.08,1.469-5.975c-0.128-0.311-0.359-0.993-0.359-1.879 c0-1.965,1.245-3.504,2.834-3.504c1.272,0,2.127,0.899,2.127,2.237c0,0.753-0.297,1.671-0.611,2.644 c-0.169,0.523-0.344,1.063-0.473,1.587c-0.097,0.402-0.024,0.775,0.213,1.076c0.269,0.342,0.711,0.538,1.212,0.538 c2.057,0,3.549-2.167,3.549-5.153c0-2.664-2.009-4.524-4.886-4.524c-3.455,0-5.319,2.505-5.319,4.861 c0,0.994,0.422,2.005,0.838,2.489c0.2,0.231,0.267,0.51,0.193,0.803l-0.365,1.407c-0.073,0.305-0.253,0.453-0.391,0.521 c-0.21,0.104-0.455,0.093-0.728-0.029c-1.823-0.81-2.914-3.299-2.914-5.237c0-3.842,2.821-7.977,9.015-7.977 c4.807,0,8.447,3.281,8.467,7.633c0,4.666-3.091,8.183-7.191,8.183c-1.013,0-2.022-0.352-2.716-0.899 c-0.2,0.732-0.467,1.708-0.56,2.055c-0.478,1.764-2.167,4.121-2.184,4.143C46.296,61.195,46.111,61.286,45.917,61.286z M49.146,45.675c-1.029,0-1.834,1.1-1.834,2.504c0,0.944,0.327,1.597,0.33,1.604c0.055,0.106,0.07,0.231,0.041,0.348 c0,0-1.273,5.173-1.509,6.14c-0.246,1.003-0.143,2.449-0.031,3.391c0.51-0.802,1.236-2.06,1.5-3.033 c0.156-0.582,0.802-2.941,0.802-2.941c0.054-0.196,0.221-0.341,0.424-0.364c0.204-0.021,0.399,0.076,0.497,0.255 c0.313,0.568,1.34,1.156,2.519,1.156c3.529,0,6.191-3.087,6.191-7.181c-0.017-3.781-3.227-6.635-7.467-6.635 c-5.507,0-8.015,3.616-8.015,6.977c0,1.514,0.811,3.502,2.133,4.231l0.28-1.082c-0.629-0.76-1.047-1.996-1.047-3.103 c0-2.842,2.215-5.861,6.319-5.861c3.465,0,5.886,2.271,5.886,5.524c0,3.565-1.913,6.153-4.549,6.153 c-0.81,0-1.538-0.335-1.999-0.92c-0.427-0.542-0.568-1.229-0.398-1.931c0.135-0.55,0.316-1.112,0.493-1.658 c0.29-0.896,0.563-1.74,0.563-2.336C50.272,46.54,50.163,45.675,49.146,45.675z"/></g></svg>